<?xml version="1.0" encoding="utf-8"?>
<svg viewBox="73.616 107.964 390.877 269.191" xmlns="http://www.w3.org/2000/svg">
  <path id="bfbd69ed-0a30-4239-a70d-8568b89194ba" data-name="Path 3" d="M 407.55 319.169 C 407.454 319.046 407.358 318.923 407.262 318.8 C 407.167 318.677 407.072 318.553 406.978 318.43 C 406.883 318.306 406.79 318.182 406.696 318.057 C 406.602 317.933 406.509 317.807 406.416 317.681 C 406.261 314.072 406.259 310.495 406.41 306.949 C 406.557 303.428 406.855 299.95 407.304 296.514 C 407.747 293.104 408.334 289.747 409.064 286.442 C 409.789 283.162 410.653 279.945 411.657 276.789 C 411.771 276.425 411.887 276.063 412.006 275.702 C 412.124 275.341 412.245 274.982 412.368 274.626 C 412.49 274.268 412.615 273.912 412.741 273.557 C 412.868 273.202 412.996 272.849 413.126 272.497 C 414.093 269.862 415.156 267.291 416.317 264.785 C 417.47 262.297 418.715 259.877 420.052 257.526 C 421.379 255.191 422.794 252.929 424.297 250.738 C 425.789 248.564 427.364 246.466 429.022 244.444 L 429.283 244.126 L 429.545 243.811 L 429.808 243.497 L 430.072 243.185 L 430.262 242.961 L 430.454 242.738 C 430.518 242.663 430.583 242.59 430.648 242.516 C 430.713 242.443 430.778 242.37 430.845 242.298 L 431.003 242.212 L 431.159 242.126 L 431.315 242.041 L 431.471 241.956 L 431.48 241.953 L 431.49 241.948 L 431.5 241.943 L 431.51 241.94 L 431.572 241.906 L 431.634 241.871 L 431.695 241.836 L 431.754 241.802 L 432.025 241.656 L 432.295 241.513 L 432.564 241.371 L 432.832 241.227 L 432.628 241.124 L 432.115 240.869 L 432.118 240.867 C 432.163 240.886 432.206 240.906 432.25 240.927 C 432.293 240.948 432.336 240.968 432.38 240.987 C 432.424 241.008 432.468 241.028 432.511 241.049 C 432.553 241.069 432.597 241.09 432.64 241.112 L 432.69 241.133 L 432.74 241.154 L 432.791 241.176 C 432.808 241.183 432.824 241.191 432.84 241.2 C 432.854 241.208 432.869 241.214 432.884 241.219 L 432.928 241.238 L 432.972 241.257 L 433.017 241.275 C 434.885 242.132 436.759 243.001 438.608 243.913 C 440.457 244.825 442.278 245.775 444.049 246.797 C 445.816 247.812 447.528 248.919 449.179 250.113 C 450.825 251.302 452.382 252.608 453.84 254.021 C 455.378 255.524 456.753 257.184 457.944 258.975 C 459.121 260.734 460.09 262.624 460.829 264.608 C 461.54 266.496 461.964 268.48 462.086 270.494 C 462.204 272.431 461.932 274.372 461.285 276.202 C 461.198 276.441 461.104 276.676 461.002 276.908 C 460.901 277.14 460.793 277.368 460.679 277.593 C 460.564 277.818 460.443 278.039 460.315 278.256 C 460.187 278.473 460.052 278.686 459.911 278.895 C 459.852 278.982 459.792 279.068 459.731 279.154 C 459.67 279.24 459.608 279.324 459.545 279.409 C 459.482 279.493 459.418 279.576 459.354 279.66 C 459.289 279.743 459.224 279.826 459.158 279.908 C 457.934 281.446 456.379 282.689 454.608 283.542 C 452.828 284.393 450.893 284.873 448.921 284.952 C 446.849 285.039 444.779 284.738 442.817 284.066 C 440.713 283.348 438.758 282.251 437.048 280.83 C 436.457 280.341 435.897 279.817 435.371 279.259 C 434.849 278.706 434.363 278.122 433.915 277.509 C 433.47 276.901 433.064 276.266 432.699 275.607 C 432.337 274.953 432.018 274.276 431.743 273.581 C 431.614 275.741 431.95 277.903 432.726 279.922 C 433.546 282.045 434.66 284.042 436.036 285.855 C 437.49 287.785 439.102 289.589 440.857 291.25 C 442.623 292.944 444.5 294.532 446.354 295.994 C 448.207 297.457 450.126 298.952 451.984 300.512 C 453.84 302.046 455.607 303.685 457.276 305.42 C 458.895 307.096 460.327 308.944 461.547 310.929 C 462.745 312.889 463.611 315.034 464.111 317.277 C 464.645 319.719 464.618 322.252 464.031 324.682 C 463.746 325.865 463.34 327.015 462.82 328.114 C 462.295 329.223 461.666 330.279 460.941 331.269 L 460.873 331.359 L 460.806 331.449 L 460.736 331.539 L 460.666 331.628 C 458.898 333.939 456.678 335.866 454.142 337.292 C 452.866 338.01 451.52 338.598 450.126 339.046 C 448.699 339.506 447.23 339.822 445.74 339.99 C 442.906 340.251 440.049 340.088 437.263 339.505 C 434.394 338.904 431.606 337.971 428.953 336.725 C 426.211 335.441 423.589 333.913 421.12 332.16 C 418.63 330.398 416.272 328.455 414.065 326.347 C 413.479 325.788 412.903 325.219 412.338 324.64 C 411.773 324.061 411.219 323.472 410.675 322.873 C 410.131 322.274 409.599 321.666 409.079 321.049 C 408.559 320.432 408.049 319.805 407.55 319.169 Z" fill="#f2f2f2" style=""/>
  <path id="a2347809-d406-465d-97ee-6d57ebf46a78" data-name="Path 4" d="M 453.116 277.349 C 451.364 276.44 449.68 275.407 448.076 274.257 C 444.873 271.96 442.011 269.222 439.576 266.122 C 438.368 264.584 437.275 262.96 436.303 261.263 C 435.493 259.829 434.774 258.346 434.15 256.822 C 433.541 255.335 433.028 253.81 432.616 252.257 C 432.214 250.74 431.914 249.197 431.719 247.64 C 431.527 246.115 431.443 244.578 431.467 243.041 C 431.47 242.954 431.472 242.868 431.473 242.782 C 431.475 242.697 431.477 242.611 431.479 242.524 C 431.482 242.437 431.485 242.352 431.489 242.267 L 431.502 242.012 C 431.429 242.07 431.355 242.128 431.282 242.187 L 431.063 242.366 L 430.845 242.545 L 430.627 242.725 L 430.488 242.841 L 430.347 242.958 L 430.208 243.075 L 430.07 243.192 L 430.26 242.969 L 430.455 242.738 C 430.52 242.664 430.584 242.59 430.649 242.517 C 430.714 242.443 430.78 242.37 430.847 242.298 L 431.004 242.212 L 431.161 242.127 L 431.313 242.042 L 431.469 241.957 L 431.478 241.954 L 431.488 241.949 L 431.498 241.944 L 431.508 241.941 L 431.571 241.906 L 431.633 241.872 L 431.693 241.837 L 431.753 241.803 L 432.023 241.657 L 432.293 241.514 L 432.563 241.372 L 432.833 241.229 L 432.622 241.124 L 432.109 240.868 L 432.113 240.866 C 432.157 240.885 432.2 240.905 432.244 240.926 C 432.287 240.947 432.33 240.967 432.374 240.986 C 432.418 241.007 432.462 241.027 432.505 241.048 C 432.547 241.068 432.591 241.089 432.634 241.111 L 432.684 241.132 L 432.734 241.153 L 432.785 241.175 C 432.802 241.182 432.818 241.19 432.834 241.199 L 432.829 241.28 L 432.823 241.357 L 432.819 241.433 L 432.815 241.51 C 432.625 244.099 432.76 246.701 433.216 249.257 C 433.685 251.888 434.454 254.456 435.509 256.912 C 436.6 259.453 437.962 261.869 439.574 264.116 C 441.239 266.44 443.147 268.581 445.265 270.502 C 447.397 272.409 449.723 274.087 452.204 275.509 C 453.429 276.212 454.691 276.848 455.984 277.417 C 457.266 277.98 458.578 278.473 459.913 278.893 C 459.855 278.98 459.794 279.067 459.733 279.152 C 459.672 279.238 459.61 279.323 459.547 279.407 C 459.484 279.491 459.42 279.575 459.356 279.658 C 459.291 279.741 459.226 279.824 459.16 279.906 C 458.645 279.736 458.133 279.554 457.623 279.362 C 457.114 279.169 456.607 278.967 456.102 278.753 C 455.598 278.54 455.097 278.316 454.599 278.081 C 454.102 277.847 453.607 277.603 453.116 277.349 Z" fill="#fff" style=""/>
  <path id="fd435d97-ab67-4bbc-9247-61e184ba81ed" data-name="Path 5" d="M 418.444 296.701 C 417.871 295.844 417.33 294.972 416.821 294.084 C 416.311 293.196 415.836 292.296 415.393 291.383 C 414.951 290.47 414.542 289.545 414.167 288.609 C 413.792 287.673 413.453 286.729 413.149 285.777 C 412.993 285.272 412.85 284.765 412.719 284.256 C 412.588 283.747 412.469 283.238 412.362 282.727 C 412.256 282.217 412.161 281.706 412.078 281.193 C 411.996 280.68 411.926 280.168 411.869 279.657 C 411.84 279.418 411.814 279.179 411.791 278.94 C 411.768 278.7 411.748 278.461 411.73 278.222 C 411.712 277.983 411.697 277.744 411.685 277.505 C 411.672 277.266 411.662 277.028 411.655 276.79 C 411.769 276.426 411.886 276.064 412.004 275.703 C 412.122 275.342 412.243 274.982 412.365 274.624 C 412.487 274.266 412.612 273.91 412.738 273.555 C 412.865 273.201 412.994 272.847 413.125 272.495 C 413.096 272.79 413.071 273.086 413.051 273.382 C 413.031 273.679 413.015 273.976 413.003 274.274 C 412.991 274.573 412.983 274.872 412.98 275.171 C 412.976 275.471 412.977 275.771 412.982 276.072 C 412.981 276.236 412.982 276.4 412.986 276.564 C 412.989 276.728 412.994 276.892 412.999 277.056 C 413.005 277.22 413.012 277.384 413.021 277.548 C 413.029 277.712 413.039 277.876 413.05 278.04 C 413.176 279.88 413.465 281.706 413.912 283.495 C 414.366 285.306 414.958 287.079 415.682 288.799 C 416.421 290.553 417.272 292.257 418.232 293.9 C 419.207 295.571 420.274 297.188 421.427 298.743 C 422.668 300.422 423.98 302.056 425.363 303.646 C 426.745 305.236 428.181 306.782 429.668 308.285 C 431.157 309.786 432.69 311.241 434.266 312.65 C 435.843 314.059 437.445 315.419 439.074 316.73 C 440.743 318.076 442.444 319.371 444.18 320.615 C 445.916 321.859 447.68 323.049 449.472 324.184 C 451.263 325.318 453.082 326.397 454.927 327.421 C 456.773 328.445 458.639 329.411 460.526 330.318 C 460.613 330.36 460.691 330.418 460.757 330.488 C 460.821 330.557 460.873 330.637 460.911 330.723 C 460.948 330.809 460.97 330.9 460.976 330.993 C 460.982 331.087 460.97 331.181 460.94 331.27 C 460.93 331.309 460.917 331.346 460.9 331.382 C 460.883 331.417 460.863 331.449 460.839 331.48 C 460.816 331.511 460.79 331.539 460.761 331.564 C 460.732 331.588 460.7 331.61 460.667 331.628 C 460.631 331.644 460.594 331.655 460.556 331.662 C 460.517 331.669 460.478 331.671 460.439 331.668 C 460.4 331.666 460.36 331.658 460.322 331.647 C 460.283 331.635 460.245 331.619 460.21 331.598 C 459.976 331.486 459.743 331.374 459.51 331.261 C 459.277 331.149 459.045 331.035 458.813 330.921 C 458.58 330.807 458.349 330.692 458.117 330.575 C 457.886 330.459 457.655 330.341 457.423 330.222 C 455.5 329.234 453.602 328.186 451.73 327.08 C 449.858 325.973 448.014 324.809 446.198 323.587 C 444.383 322.366 442.601 321.089 440.851 319.758 C 439.102 318.427 437.389 317.042 435.713 315.605 C 434.094 314.222 432.497 312.791 430.937 311.312 C 429.377 309.833 427.856 308.307 426.392 306.731 C 424.928 305.156 423.522 303.533 422.191 301.861 C 420.859 300.189 419.605 298.469 418.444 296.701 Z" fill="#fff" style=""/>
  <path id="e3ba7b84-95ab-4be0-b084-77760c6da15d" data-name="Path 1" d="M 454.678 159.255 L 453.301 159.434 L 462.538 124.763 C 463.219 122.448 463.33 120.003 462.861 117.636 C 462.455 115.701 461.45 113.944 459.988 112.614 C 458.458 111.283 456.582 110.413 454.578 110.102 C 452.136 109.724 449.645 109.836 447.247 110.431 L 447.247 110.431 L 384.465 124.728 C 382.274 125.26 380.176 126.123 378.245 127.287 C 376.145 128.536 374.192 130.017 372.422 131.702 C 370.602 133.42 368.968 135.326 367.547 137.387 C 366.16 139.382 365.029 141.544 364.18 143.821 L 364.18 143.821 L 298.492 324.496 C 297.4 327.467 296.69 330.565 296.38 333.715 C 296.093 336.511 296.229 339.335 296.783 342.091 C 297.246 344.486 298.212 346.754 299.618 348.747 C 300.908 350.559 302.725 351.93 304.821 352.672 L 304.821 352.672 L 371.154 375.507 C 374.101 376.511 377.264 376.699 380.309 376.053 C 383.564 375.343 386.625 373.934 389.28 371.921 C 392.261 369.681 394.825 366.934 396.854 363.805 C 399.1 360.367 400.779 356.59 401.826 352.619 L 401.826 352.619 L 446.297 185.713 L 447.693 185.601 Z" fill="#2f2e41" style=""/>
  <path id="b5993d63-c6a8-428b-8f96-914fd0c3ef98" data-name="Path 1" d="M 449.88 157.336 L 448.502 157.515 L 457.74 122.844 C 458.42 120.529 458.531 118.083 458.062 115.716 C 457.656 113.782 456.651 112.025 455.189 110.694 C 453.659 109.364 451.783 108.493 449.779 108.183 C 447.338 107.805 444.846 107.916 442.448 108.511 L 442.448 108.511 L 379.666 122.809 C 377.475 123.34 375.378 124.203 373.446 125.367 C 371.346 126.616 369.393 128.097 367.624 129.782 C 365.803 131.501 364.169 133.406 362.748 135.468 C 361.361 137.463 360.23 139.624 359.382 141.902 L 359.382 141.902 L 293.693 322.577 C 292.601 325.547 291.892 328.645 291.582 331.795 C 291.294 334.592 291.43 337.415 291.984 340.171 C 292.447 342.566 293.413 344.835 294.819 346.828 C 296.109 348.64 297.926 350.01 300.022 350.752 L 300.022 350.752 L 366.355 373.588 C 369.302 374.591 372.465 374.78 375.51 374.133 C 378.765 373.424 381.826 372.014 384.481 370.002 C 387.463 367.762 390.026 365.014 392.055 361.886 C 394.302 358.448 395.98 354.671 397.027 350.699 L 397.027 350.699 L 441.498 183.793 L 442.894 183.681 Z" fill="#3f3d56" style=""/>
  <path id="f76bb9a3-d246-4a39-a954-55c4fdcd575d" data-name="Path 2" d="M 441.893 113.035 L 432.664 115.057 C 432.765 115.855 432.686 116.666 432.432 117.43 C 432.144 118.323 431.727 119.169 431.194 119.941 C 429.994 121.695 428.392 123.136 426.523 124.145 C 426.299 124.264 426.076 124.374 425.853 124.474 C 425.631 124.575 425.409 124.667 425.186 124.749 C 424.965 124.831 424.745 124.904 424.526 124.967 C 424.308 125.03 424.092 125.083 423.879 125.126 L 387.796 132.432 C 387.127 132.588 386.43 132.58 385.764 132.409 C 385.228 132.265 384.755 131.947 384.42 131.504 C 384.083 131.029 383.892 130.465 383.872 129.882 C 383.845 129.139 383.962 128.397 384.218 127.699 C 384.282 127.511 384.355 127.321 384.437 127.13 C 384.519 126.939 384.608 126.748 384.705 126.557 C 384.801 126.365 384.906 126.174 385.019 125.984 C 385.133 125.794 385.253 125.604 385.379 125.415 L 378.547 126.911 C 376.901 127.297 375.325 127.935 373.875 128.802 C 372.289 129.736 370.815 130.847 369.481 132.113 C 368.105 133.407 366.871 134.844 365.8 136.399 C 364.756 137.903 363.907 139.532 363.273 141.25 L 297.708 323.495 C 296.893 325.734 296.369 328.069 296.151 330.442 C 295.948 332.537 296.068 334.651 296.504 336.71 C 296.868 338.489 297.61 340.169 298.681 341.636 C 299.663 342.966 301.032 343.961 302.601 344.484 L 302.601 344.484 L 369.422 366.193 C 371.626 366.9 373.98 367.005 376.239 366.499 C 378.645 365.948 380.905 364.888 382.866 363.389 C 385.06 361.728 386.949 359.698 388.448 357.391 C 390.107 354.856 391.352 352.074 392.137 349.148 L 392.137 349.148 L 453.19 123.852 C 453.703 122.132 453.797 120.315 453.467 118.551 C 453.18 117.106 452.449 115.786 451.376 114.776 C 450.252 113.766 448.863 113.097 447.373 112.846 C 445.552 112.541 443.688 112.605 441.893 113.035 Z" fill="#fff" style=""/>
  <path d="M 406.058 199.348 L 273.133 199.348 L 273.133 154.304 L 406.058 154.304 Z" fill="#fff" style=""/>
  <rect x="236.921" y="215.246" width="130.275" height="63.15" fill="#fff" style=""/>
  <circle cx="258.085" cy="236.148" r="9.423" fill="#ff6347" style=""/>
  <path d="M 279.848 229.866 C 278.639 229.866 277.883 231.175 278.488 232.222 C 278.768 232.708 279.287 233.007 279.848 233.007 L 353.888 233.007 C 355.097 233.004 355.85 231.693 355.243 230.648 C 354.962 230.165 354.447 229.867 353.888 229.866 Z" fill="#e6e6e6" style=""/>
  <path d="M 279.848 239.289 C 278.639 239.285 277.879 240.591 278.48 241.64 C 278.76 242.128 279.279 242.43 279.841 242.43 L 311.708 242.43 C 312.917 242.43 313.672 241.121 313.068 240.074 C 312.787 239.588 312.269 239.289 311.708 239.289 Z" fill="#e6e6e6" style=""/>
  <path d="M 250.857 254.354 C 249.662 254.354 248.69 255.059 248.69 255.925 C 248.69 256.791 249.662 257.495 250.857 257.495 L 353.01 257.495 C 354.204 257.495 355.176 256.791 355.176 255.925 C 355.176 255.059 354.204 254.354 353.01 254.354 Z" fill="#e6e6e6" style=""/>
  <path d="M 250.857 263.778 C 249.662 263.778 248.69 264.482 248.69 265.348 C 248.69 266.214 249.662 266.919 250.857 266.919 L 329.495 266.919 C 330.69 266.919 331.662 266.214 331.662 265.348 C 331.662 264.482 330.69 263.778 329.495 263.778 Z" fill="#e6e6e6" style=""/>
  <path d="M 368.521 279.722 L 235.596 279.722 L 235.596 213.922 L 368.521 213.922 Z M 238.246 277.072 L 365.871 277.072 L 365.871 216.571 L 238.246 216.571 Z" fill="#e6e6e6" style=""/>
  <circle cx="295.622" cy="176.53" r="9.423" fill="#ff6347" style=""/>
  <path d="M 317.385 170.248 C 316.176 170.248 315.42 171.557 316.025 172.604 C 316.305 173.09 316.824 173.389 317.385 173.389 L 391.425 173.389 C 392.634 173.386 393.387 172.076 392.78 171.03 C 392.499 170.547 391.984 170.25 391.425 170.248 Z" fill="#e6e6e6" style=""/>
  <path d="M 317.385 179.672 C 316.176 179.667 315.416 180.974 316.017 182.023 C 316.296 182.511 316.816 182.812 317.378 182.813 L 375.638 182.813 C 376.847 182.813 377.603 181.504 376.998 180.457 C 376.718 179.971 376.199 179.672 375.638 179.672 Z" fill="#e6e6e6" style=""/>
  <path d="M 406.058 199.348 L 273.133 199.348 L 273.133 154.304 L 406.058 154.304 Z M 275.783 196.699 L 403.408 196.699 L 403.408 156.954 L 275.783 156.954 Z" fill="#e6e6e6" style=""/>
  <polygon points="144.875 370.933 151.575 370.933 154.763 345.087 144.873 345.087 144.875 370.933" fill="#ffb6b6" style=""/>
  <path d="M 143.439 369.018 L 164.498 369.018 C 164.498 369.018 164.498 369.018 164.498 369.018 L 164.498 377.154 C 164.498 377.154 164.498 377.154 164.498 377.154 L 150.583 377.154 C 146.637 377.154 143.439 373.956 143.439 370.011 L 143.439 369.018 C 143.439 369.018 143.439 369.018 143.439 369.018 Z" fill="#2f2e41" style="" transform="matrix(-1, 0.000046, -0.000046, -1, 307.954163, 746.164917)"/>
  <polygon points="77.871 362.249 83.743 365.477 98.989 344.365 90.323 339.6 77.871 362.249" fill="#ffb6b6" style=""/>
  <path d="M 74.273 364.449 L 95.332 364.449 C 95.332 364.449 95.332 364.449 95.332 364.449 L 95.332 372.585 C 95.332 372.585 95.332 372.585 95.332 372.585 L 81.417 372.585 C 77.471 372.585 74.273 369.387 74.273 365.441 L 74.273 364.449 C 74.273 364.449 74.273 364.449 74.273 364.449 Z" fill="#2f2e41" style="" transform="matrix(-0.876299, -0.481768, 0.481768, -0.876299, -18.424843, 732.303162)"/>
  <path d="M 144.562 356.587 C 143.327 356.586 142.284 355.669 142.125 354.444 L 133.745 289.869 C 133.61 288.826 132.396 288.321 131.56 288.959 C 131.41 289.074 131.285 289.219 131.194 289.385 L 96.269 352.748 C 95.674 353.817 94.386 354.29 93.24 353.86 L 85.627 350.959 C 84.338 350.468 83.705 349.012 84.225 347.734 L 108.418 288.303 C 108.479 288.152 108.521 287.993 108.541 287.832 C 111.818 262.47 120.155 249.572 122.633 246.223 C 123 245.724 123.101 245.077 122.904 244.489 L 122.563 243.468 C 122.286 242.643 122.466 241.733 123.036 241.075 C 131.962 230.909 147.52 236.456 147.676 236.513 L 147.754 236.542 L 147.803 236.609 C 165.248 260.533 158.798 338.238 157.328 353.573 C 157.214 354.762 156.26 355.697 155.068 355.786 L 144.753 356.58 C 144.689 356.585 144.625 356.587 144.562 356.587 Z" fill="#2f2e41" style=""/>
  <circle cx="139.832" cy="162.244" r="14.912" fill="#ffb8b8" style=""/>
  <path d="M 116.777 257.134 L 160.658 261.128 C 156.832 247.826 153.327 234.57 156.184 221.362 C 159.812 209.571 160.149 203.038 150.579 197.485 L 144.117 183.07 L 132.422 182.645 L 126.719 181.082 C 122.112 188.489 120.227 197.27 121.389 205.916 C 123.868 224.717 123.198 242.163 116.777 257.134 Z" fill="#ff6347" style=""/>
  <path d="M 123.438 190.59 L 119.024 170.332 C 118.103 165.537 118.334 160.591 119.698 155.903 C 119.847 155.422 120.026 154.952 120.234 154.494 C 122.724 149.069 127.995 145.452 133.952 145.081 C 143.983 144.389 145.456 145.446 145.818 145.968 C 151.487 145.739 155.882 147.929 157.887 151.981 C 158.724 153.694 157.808 155.747 155.975 156.269 C 153.174 157.077 149.236 157.974 146.283 157.71 C 140.364 164.81 142.784 177.818 148.789 185.569 L 149.025 185.873 L 143.075 187.093 L 136.161 177.464 C 135.701 176.824 134.721 176.921 134.396 177.64 C 134.307 177.836 134.283 178.056 134.326 178.268 L 136.425 188.466 Z" fill="#2f2e41" style=""/>
  <path d="M 208.673 245.139 L 100.143 321.887 L 74.136 285.11 L 182.666 208.362 Z" fill="#fff" style=""/>
  <circle cx="304.42" cy="549.263" r="9.423" transform="matrix(0.816477, -0.577378, 0.577378, 0.816477, -460.354218, 17.576773)" fill="#ff6347" style=""/>
  <path d="M 119.472 272.577 C 118.485 273.275 118.624 274.78 119.722 275.286 C 120.232 275.521 120.828 275.466 121.286 275.142 L 181.738 232.393 C 182.723 231.692 182.581 230.188 181.481 229.685 C 180.974 229.452 180.381 229.507 179.924 229.828 Z" fill="#e6e6e6" style=""/>
  <path d="M 124.913 280.271 C 123.925 280.968 124.062 282.473 125.16 282.98 C 125.668 283.215 126.263 283.162 126.721 282.84 L 126.727 282.836 L 174.289 249.202 C 175.276 248.504 175.137 246.999 174.039 246.493 C 173.53 246.258 172.934 246.313 172.475 246.637 Z" fill="#e6e6e6" style=""/>
  <path d="M 208.673 245.139 L 100.143 321.887 L 74.136 285.11 L 182.666 208.362 Z M 100.777 318.194 L 204.98 244.506 L 182.032 212.055 L 77.829 285.743 Z" fill="#e6e6e6" style=""/>
  <path id="ecbdc040-0b9a-4be9-8952-5ef77de340c4" data-name="Ellipse 1" d="M 456.491 231.513 C 456.876 231.498 457.26 231.564 457.618 231.705 C 457.958 231.841 458.266 232.046 458.523 232.307 C 458.782 232.57 458.983 232.883 459.116 233.226 C 459.255 233.591 459.319 233.98 459.303 234.369 C 459.287 234.769 459.194 235.162 459.029 235.527 C 458.867 235.884 458.642 236.209 458.365 236.487 C 458.089 236.762 457.765 236.985 457.41 237.145 C 457.048 237.307 456.659 237.396 456.263 237.407 C 455.878 237.419 455.495 237.35 455.137 237.205 C 454.799 237.067 454.493 236.86 454.238 236.598 C 453.982 236.334 453.783 236.022 453.652 235.678 C 453.515 235.315 453.453 234.928 453.47 234.541 C 453.486 234.143 453.578 233.752 453.743 233.389 C 453.904 233.035 454.127 232.713 454.401 232.438 C 454.675 232.163 454.996 231.939 455.349 231.779 C 455.709 231.616 456.097 231.526 456.491 231.513 Z" fill="#f2f2f2" style=""/>
  <path d="M 151.363 268.925 L 144.306 230.344 L 144.803 206.484 L 128.896 205.987 L 131.879 232.829 L 142.164 270.05 C 138.876 274.046 141.147 280.103 146.252 280.952 C 151.356 281.801 155.465 276.806 153.648 271.961 C 153.195 270.75 152.401 269.696 151.363 268.925 Z" fill="#ffb8b8" style=""/>
  <path d="M 127.902 208.472 C 133.665 206.277 140.034 206.277 145.797 208.472 L 144.803 188.589 C 144.803 184.197 141.242 180.636 136.85 180.636 L 136.85 180.636 C 132.457 180.636 128.896 184.197 128.896 188.589 Z" fill="#ff6347" style=""/>
</svg>