<?xml version="1.0" encoding="utf-8"?>
<svg viewBox="84.875 128.188 381.838 76.498" xmlns="http://www.w3.org/2000/svg">
  <defs>
    <linearGradient id="color-0">
      <stop style="stop-color: rgb(255, 99, 71);"/>
    </linearGradient>
  </defs>
  <path d="M 160.753 140.687 C 168.093 148.166 171.181 157.669 173.102 168.747 C 175.022 179.825 175.777 192.534 168.505 198.944 C 161.164 205.354 145.66 205.58 132.625 203.555 C 119.59 201.587 108.956 197.426 100.312 191.015 C 91.667 184.604 85.013 175.889 84.876 167.116 C 84.807 158.288 91.256 149.459 99.901 141.98 C 108.613 134.557 119.385 128.541 130.635 128.203 C 141.818 127.866 153.412 133.264 160.753 140.687 Z" style="fill: url(#color-0);"/>
  <path d="M 194.879 195.867 L 194.879 140.944 L 213.192 140.944 L 213.192 184.693 L 232.844 184.693 L 232.844 195.867 L 194.879 195.867 Z M 265.066 196.99 C 261.004 196.99 257.36 196.424 254.136 195.294 C 250.897 194.179 248.146 192.483 245.886 190.205 C 243.627 187.943 241.893 185.11 240.684 181.7 C 239.494 178.275 238.898 174.275 238.898 169.703 L 238.898 140.944 L 257.21 140.944 L 257.21 169.777 C 257.21 172.339 257.352 174.616 257.63 176.612 C 257.893 178.607 258.358 180.296 259.023 181.675 C 259.672 183.054 260.539 184.112 261.624 184.843 C 262.727 185.559 264.094 185.915 265.723 185.915 C 267.528 185.915 268.981 185.559 270.084 184.843 C 271.187 184.112 272.047 183.054 272.659 181.675 C 273.274 180.296 273.694 178.607 273.92 176.612 C 274.13 174.616 274.235 172.339 274.235 169.777 L 274.235 140.944 L 289.526 140.944 L 289.526 169.703 C 289.526 174.309 289.053 178.315 288.107 181.725 C 287.146 185.15 285.664 187.993 283.667 190.255 C 281.67 192.518 279.132 194.204 276.048 195.319 C 272.985 196.434 269.322 196.99 265.066 196.99 Z M 303.496 195.867 L 303.496 140.944 L 320.494 140.944 L 334.918 162.319 L 349.316 140.944 L 366.735 140.944 L 366.735 195.867 L 348.003 195.867 L 348.003 166.036 L 334.498 187.761 L 330.531 187.761 L 316.58 166.036 L 316.58 195.867 L 303.496 195.867 Z M 380.718 195.867 L 380.718 140.944 L 399.057 140.944 L 399.057 195.867 L 380.718 195.867 Z M 413.01 195.867 L 413.01 140.944 L 430.719 140.944 L 452.736 168.53 L 452.736 140.944 L 466.713 140.944 L 466.713 195.867 L 448.558 195.867 L 426.883 166.66 L 426.883 195.867 L 413.01 195.867 Z" style="fill: rgb(51, 51, 51); text-transform: uppercase; white-space: pre;"/>
</svg>