<?xml version="1.0" encoding="utf-8"?>
<svg viewBox="93.516 186.722 388.822 103.512" xmlns="http://www.w3.org/2000/svg">
  <defs>
    <linearGradient id="color-0">
      <stop style="stop-color: rgb(15, 98, 254);"/>
    </linearGradient>
  </defs>
  <path fill="#D0E2FF" d="M 169.394 218.204 C 176.734 225.683 179.822 235.186 181.743 246.264 C 183.663 257.342 184.418 270.051 177.146 276.461 C 169.805 282.871 154.301 283.097 141.266 281.072 C 128.231 279.104 117.597 274.943 108.953 268.532 C 100.308 262.121 93.654 253.406 93.517 244.633 C 93.448 235.805 99.897 226.976 108.542 219.497 C 117.254 212.074 128.026 206.058 139.276 205.72 C 150.459 205.383 162.053 210.781 169.394 218.204 Z" style="fill: url(#color-0);"/>
  <path d="M 132.612 197.823 L 132.612 175.803 L 139.582 175.803 L 139.582 193.343 L 147.062 193.343 L 147.062 197.823 L 132.612 197.823 ZM 159.326 198.273 C 157.78 198.273 156.393 198.046 155.166 197.593 C 153.933 197.146 152.886 196.466 152.026 195.553 C 151.166 194.646 150.506 193.51 150.046 192.143 C 149.593 190.77 149.366 189.166 149.366 187.333 L 149.366 175.803 L 156.336 175.803 L 156.336 187.363 C 156.336 188.39 156.39 189.303 156.496 190.103 C 156.596 190.903 156.773 191.58 157.026 192.133 C 157.273 192.686 157.603 193.11 158.016 193.403 C 158.436 193.69 158.956 193.833 159.576 193.833 C 160.263 193.833 160.816 193.69 161.236 193.403 C 161.656 193.11 161.983 192.686 162.216 192.133 C 162.45 191.58 162.61 190.903 162.696 190.103 C 162.776 189.303 162.816 188.39 162.816 187.363 L 162.816 175.803 L 168.636 175.803 L 168.636 187.333 C 168.636 189.18 168.456 190.786 168.096 192.153 C 167.73 193.526 167.166 194.666 166.406 195.573 C 165.646 196.48 164.68 197.156 163.506 197.603 C 162.34 198.05 160.946 198.273 159.326 198.273 ZM 173.953 197.823 L 173.953 175.803 L 180.423 175.803 L 185.913 184.373 L 191.393 175.803 L 198.023 175.803 L 198.023 197.823 L 190.893 197.823 L 190.893 185.863 L 185.753 194.573 L 184.243 194.573 L 178.933 185.863 L 178.933 197.823 L 173.953 197.823 ZM 203.345 197.823 L 203.345 175.803 L 210.325 175.803 L 210.325 197.823 L 203.345 197.823 ZM 215.636 197.823 L 215.636 175.803 L 222.376 175.803 L 230.756 186.863 L 230.756 175.803 L 236.076 175.803 L 236.076 197.823 L 229.166 197.823 L 220.916 186.113 L 220.916 197.823 L 215.636 197.823 Z" transform="matrix(2.6273250579833984, 0, 0, 2.4942688941955566, -144.8945770263672, -220.03892517089844)" style="fill: rgb(51, 51, 51); text-transform: uppercase; white-space: pre;"/>
</svg>