<?xml version="1.0" standalone="no"?>
<!DOCTYPE svg PUBLIC "-//W3C//DTD SVG 20010904//EN"
 "http://www.w3.org/TR/2001/REC-SVG-20010904/DTD/svg10.dtd">
<svg version="1.0" xmlns="http://www.w3.org/2000/svg"
 width="720.000000pt" height="720.000000pt" viewBox="0 0 720.000000 720.000000"
 preserveAspectRatio="xMidYMid meet">
<metadata>
Created by potrace 1.14, written by Peter Selinger 2001-2017
</metadata>
<g transform="translate(0.000000,720.000000) scale(0.100000,-0.100000)"
fill="#000000" stroke="none">
<path d="M3569 6666 c-2 -2 -40 -7 -84 -10 -44 -4 -87 -9 -95 -11 -8 -2 -35
-7 -60 -10 -25 -3 -58 -9 -75 -12 -16 -3 -39 -7 -50 -8 -11 -2 -21 -4 -22 -5
-4 -3 -13 -6 -58 -15 -56 -11 -205 -51 -237 -64 -16 -6 -28 -8 -28 -5 0 4 -7
1 -15 -6 -8 -7 -15 -10 -15 -7 0 5 -33 -6 -95 -32 -11 -5 -42 -17 -70 -27 -27
-9 -66 -24 -85 -32 -19 -9 -40 -16 -46 -18 -13 -2 -283 -130 -304 -144 -15
-10 -112 -62 -165 -88 -16 -9 -32 -18 -35 -22 -3 -3 -32 -22 -65 -40 -33 -19
-61 -37 -63 -42 -2 -4 -8 -8 -13 -8 -23 0 -492 -333 -554 -393 -7 -7 -27 -24
-46 -39 -143 -112 -520 -476 -609 -588 -19 -24 -42 -51 -51 -59 -17 -17 -121
-149 -154 -195 -11 -16 -29 -40 -40 -55 -11 -14 -26 -35 -32 -46 -7 -11 -38
-60 -70 -110 -59 -92 -197 -355 -186 -355 3 0 1 -6 -4 -12 -8 -11 -46 -103
-48 -118 0 -3 -8 -27 -17 -55 -14 -43 -38 -138 -53 -211 -20 -95 -27 -368 -12
-454 3 -19 9 -52 12 -74 7 -42 10 -52 25 -111 6 -22 13 -50 15 -62 8 -35 63
-180 94 -247 15 -34 31 -71 35 -84 4 -12 12 -22 17 -22 5 0 9 -8 9 -17 0 -9
11 -33 23 -52 13 -20 46 -72 73 -116 43 -71 151 -221 201 -281 10 -12 38 -46
62 -75 45 -54 331 -342 386 -389 17 -14 68 -56 115 -94 47 -38 87 -73 88 -78
2 -4 8 -8 14 -8 6 0 23 -10 38 -22 56 -45 75 -60 102 -76 16 -9 28 -20 28 -24
0 -4 4 -8 10 -8 10 0 92 -55 124 -82 11 -10 23 -18 28 -18 4 0 39 -20 76 -44
102 -65 179 -107 372 -204 155 -77 323 -155 339 -158 3 0 20 -6 36 -13 47 -19
157 -61 190 -73 17 -5 39 -14 50 -19 27 -11 265 -89 289 -94 10 -3 44 -12 75
-21 31 -9 63 -17 71 -19 8 -2 27 -8 43 -14 15 -6 27 -9 27 -7 0 2 24 -3 53
-11 28 -8 68 -18 87 -23 73 -16 226 -50 255 -55 55 -10 240 -44 275 -50 19 -3
44 -7 55 -9 11 -2 45 -7 75 -10 30 -4 62 -9 70 -11 8 -2 40 -7 70 -10 30 -3
66 -8 80 -10 14 -2 50 -6 81 -9 30 -3 75 -8 100 -11 24 -3 71 -7 104 -10 33
-2 105 -8 160 -12 133 -10 675 -10 795 0 137 11 190 16 235 23 22 3 54 7 70 9
32 3 93 13 135 21 14 3 34 7 45 8 23 3 41 7 180 42 106 27 209 59 237 74 10 6
23 10 28 10 6 0 32 10 58 22 26 12 49 22 52 23 12 1 140 71 200 109 106 66
228 178 296 271 24 33 48 65 54 72 32 39 157 310 162 350 0 1 7 24 15 50 22
71 44 172 57 258 3 22 8 51 11 65 19 94 27 609 12 760 -3 30 -8 84 -12 120
-10 122 -14 155 -19 180 -3 14 -8 52 -12 85 -7 70 -12 100 -14 100 -1 0 -3 16
-5 35 -1 19 -8 64 -15 100 -7 36 -14 79 -17 95 -2 17 -11 64 -19 105 -8 41
-18 93 -21 115 -3 22 -10 51 -14 64 -5 13 -7 26 -5 28 3 3 1 16 -5 30 -5 13
-11 38 -14 56 -3 18 -8 40 -11 49 -3 9 -7 25 -9 35 -2 10 -11 47 -20 83 -9 36
-18 74 -20 85 -2 11 -11 43 -20 70 -9 28 -18 59 -20 70 -7 32 -70 222 -103
310 -51 138 -63 166 -144 342 -11 24 -24 45 -29 49 -5 3 -7 10 -4 15 4 5 1 9
-5 9 -6 0 -8 5 -5 10 3 6 1 10 -4 10 -6 0 -11 5 -11 12 0 12 -48 97 -124 218
-41 67 -181 258 -232 319 -52 61 -214 233 -214 227 0 -2 -24 20 -53 48 -51 50
-136 120 -247 204 -30 23 -59 45 -65 49 -23 18 -215 143 -219 143 -2 0 -34 18
-70 40 -36 22 -70 40 -76 40 -5 0 -10 5 -10 10 0 6 -9 10 -19 10 -11 0 -21 3
-23 8 -8 18 -425 202 -493 217 -5 1 -17 5 -25 8 -24 9 -124 41 -140 44 -20 5
-31 8 -55 16 -11 3 -31 8 -45 11 -14 3 -52 12 -85 20 -33 8 -76 17 -95 20 -19
3 -46 8 -60 11 -31 7 -80 14 -145 21 -27 3 -61 8 -75 11 -28 6 -465 15 -471 9z"/>
</g>
</svg>
